HIERARCHY
ROOT Hips
{
	OFFSET 0.000000 0.000000 0.000000 
	CHANNELS 6 Xposition Yposition Zposition Zrotation Yrotation Xrotation
	JOINT LeftUpLeg
	{
		OFFSET 1.363060 -1.794630 0.839290 
		CHANNELS 3 Zrotation Yrotation Xrotation
		JOINT LeftLeg
		{
			OFFSET 2.448110 -6.726130 0.000000 
			CHANNELS 3 Zrotation Yrotation Xrotation
			JOINT LeftFoot
			{
				OFFSET 2.562200 -7.039590 0.000000 
				CHANNELS 3 Zrotation Yrotation Xrotation
				JOINT LeftToeBase
				{
					OFFSET 0.157640 -0.433110 2.322550 
					CHANNELS 3 Zrotation Yrotation Xrotation
					End Site
					{
						OFFSET 0.000000 0.000000 0.000000 
					}
				}
			}
		}
	}
	JOINT RightUpLeg
	{
		OFFSET -1.305520 -1.794630 0.839290 
		CHANNELS 3 Zrotation Yrotation Xrotation
		JOINT RightLeg
		{
			OFFSET -2.542530 -6.985550 0.000000 
			CHANNELS 3 Zrotation Yrotation Xrotation
			JOINT RightFoot
			{
				OFFSET -2.568260 -7.056230 0.000000 
				CHANNELS 3 Zrotation Yrotation Xrotation
				JOINT RightToeBase
				{
					OFFSET -0.164730 -0.452590 2.363150 
					CHANNELS 3 Zrotation Yrotation Xrotation
					End Site
					{
						OFFSET 0.000000 0.000000 0.000000 
					}
				}
			}
		}
	}
	JOINT Spine
	{
		OFFSET 0.028270 2.035590 -0.193380 
		CHANNELS 3 Zrotation Yrotation Xrotation
		JOINT Spine1
		{
			OFFSET 0.056720 2.048850 -0.042750 
			CHANNELS 3 Zrotation Yrotation Xrotation
			JOINT Neck1
			{
				OFFSET -0.054170 1.746240 0.172020 
				CHANNELS 3 Zrotation Yrotation Xrotation
				JOINT Head
				{
					OFFSET 0.104070 1.761360 -0.123970 
					CHANNELS 3 Zrotation Yrotation Xrotation
					End Site
					{
						OFFSET 0.000000 0.000000 0.000000 
					}
				}
			}
			JOINT LeftArm
			{
				OFFSET 3.362410 1.200890 -0.311210 
				CHANNELS 3 Zrotation Yrotation Xrotation
				JOINT LeftForeArm
				{
					OFFSET 4.983000 -0.000000 -0.000000 
					CHANNELS 3 Zrotation Yrotation Xrotation
					JOINT LeftHand
					{
						OFFSET 3.483560 -0.000000 -0.000000 
						CHANNELS 3 Zrotation Yrotation Xrotation
						JOINT LeftHandIndex1
						{
							OFFSET 0.715260 -0.000000 -0.000000 
							CHANNELS 3 Zrotation Yrotation Xrotation
							End Site
							{
								OFFSET 0.000000 0.000000 0.000000 
							}
						}
					}
				}
			}
			JOINT RightArm
			{
				OFFSET -3.136600 1.374050 -0.404650 
				CHANNELS 3 Zrotation Yrotation Xrotation
				JOINT RightForeArm
				{
					OFFSET -5.241900 -0.000000 -0.000000 
					CHANNELS 3 Zrotation Yrotation Xrotation
					JOINT RightHand
					{
						OFFSET -3.444170 -0.000000 -0.000000 
						CHANNELS 3 Zrotation Yrotation Xrotation
						JOINT RightHandIndex1
						{
							OFFSET -0.622530 -0.000000 -0.000000 
							CHANNELS 3 Zrotation Yrotation Xrotation
							End Site
							{
								OFFSET 0.000000 0.000000 0.000000 
							}
						}
					}
				}
			}
		}
	}
}
MOTION
Frames: 18
Frame Time: 0.041667
1.854905 18.475124 9.675540 -9.341028 -5.603441 15.884763 -20.043186 -50.958338 16.560422 -3.963308 -3.560850 -5.006466 -14.131956 47.319122 -41.038113 2.123000 9.117800 26.164400 14.808953 37.016472 -3.347610 3.569065 0.225252 0.871704 10.356407 -30.011805 -5.212229 -0.047600 -1.408000 3.872200 13.406030 -1.353477 21.515484 -3.545094 -0.699266 -23.917557 6.661454 -0.886987 31.043440 1.186200 1.087600 9.989700 -66.266150 -43.479324 27.543433 12.725170 -11.964108 -2.661717 -2.340677 -3.652967 -35.545175 -7.125000 0.000000 0.000000 92.110930 37.568403 94.897158 -35.671142 41.169884 -16.872874 -2.076759 1.639227 -42.581459 7.125000 0.000000 0.000000 
1.858275 18.470491 9.696813 -9.804280 -5.269608 15.476899 -20.224992 -51.124094 17.505920 -3.963901 -3.587881 -5.074353 -14.560804 47.834350 -40.942970 1.996400 8.858600 25.354100 15.757392 36.949774 -2.527894 3.603280 0.277615 0.826977 10.326212 -29.986444 -5.627502 -0.059400 -1.572000 4.324300 14.063269 -1.433294 21.714504 -4.109464 -0.838946 -24.147629 7.015621 -1.003894 31.156832 1.241500 1.088800 10.013500 -66.129112 -40.476929 33.590226 15.203960 -15.336512 -3.534752 -1.625120 -4.128656 -43.746474 -7.125000 0.000000 0.000000 89.583644 36.618381 94.606347 -39.879815 43.624042 -19.994890 -2.004808 1.496120 -44.017516 7.125000 0.000000 0.000000 
1.868595 18.461118 9.714399 -10.374985 -4.916381 15.353187 -20.011541 -51.312016 17.957548 -3.950780 -3.565558 -5.062315 -15.144070 48.462748 -40.669188 1.826400 8.494700 24.226900 16.581195 36.597792 -2.232745 3.618696 0.258005 0.878952 10.209738 -29.789112 -5.671164 -0.051800 -1.468100 4.037800 15.105368 -1.418440 21.161563 -4.844017 -1.015107 -24.210321 7.424930 -1.161333 31.480995 1.326200 1.079500 10.084300 -65.790923 -37.157588 38.446287 18.005419 -19.225803 -4.774836 -0.971208 -4.385947 -50.646983 -7.125000 0.000000 0.000000 86.880565 35.277159 94.174038 -44.437638 45.878518 -23.527125 -1.939653 1.356277 -45.219840 7.125000 0.000000 0.000000 
1.873650 18.458064 9.737041 -10.339517 -4.789937 15.318869 -20.227157 -51.496449 18.171521 -3.937331 -3.501354 -4.953998 -15.564698 48.929513 -40.493795 1.698300 8.207100 23.344800 16.677726 36.601562 -2.043982 3.624530 0.244745 0.920524 10.239250 -29.857660 -5.840928 -0.040500 -1.298500 3.570600 14.998376 -1.289444 20.667872 -4.942141 -0.988393 -24.252108 7.630495 -1.260018 31.796945 1.364800 1.074200 10.148000 -65.320862 -33.809585 42.327147 21.083283 -23.374392 -6.426501 -0.420418 -4.490155 -56.303912 -7.125000 0.000000 0.000000 84.060930 33.768189 93.812144 -49.252977 47.910504 -27.418313 -1.866791 1.216534 -46.515938 7.125000 0.000000 0.000000 
1.882917 18.449745 9.758524 -10.799084 -4.437328 15.144000 -20.056639 -51.759033 18.581612 -3.915001 -3.450723 -4.881178 -16.196718 49.557495 -40.142528 1.525500 7.798700 22.104200 17.455272 36.501622 -1.587342 3.643078 0.258651 0.923108 10.224408 -29.893544 -6.059432 -0.031800 -1.150700 3.163400 15.439340 -1.289002 20.658520 -5.476549 -1.111253 -24.328916 7.887233 -1.391181 31.862620 1.395500 1.056400 10.182100 -64.785316 -30.610814 45.367621 24.452867 -27.564655 -8.508452 -0.013433 -4.444353 -60.770824 -7.125000 0.000000 0.000000 81.389507 32.231367 93.423392 -54.255481 49.685459 -31.610720 -1.822361 1.057200 -47.615723 7.125000 0.000000 0.000000 
1.888183 18.447323 9.783376 -10.743074 -4.315539 15.131632 -19.913309 -51.308538 18.224817 -3.889369 -3.435078 -4.873248 -16.520778 49.599253 -39.036127 1.401700 7.489200 21.173000 17.504503 36.606043 -1.372431 3.653116 0.275144 0.916402 10.273942 -29.993016 -6.377309 -0.037100 -1.244000 3.420400 15.169425 -1.217555 20.576598 -5.501513 -1.064353 -24.308206 8.284026 -1.575122 31.930691 1.466900 1.025100 10.200500 -64.304139 -27.395483 47.768941 28.129324 -31.634676 -11.049361 0.308064 -4.337848 -64.153327 -7.125000 0.000000 0.000000 78.773672 30.528182 92.528839 -58.910628 51.118592 -35.648781 -1.875065 0.867487 -45.904460 7.125000 0.000000 0.000000 
1.884707 18.456485 9.815074 -9.541863 -4.670393 15.371793 -21.148413 -51.662796 18.249010 -3.887981 -3.359573 -4.727881 -16.502178 49.765850 -39.483464 1.395400 7.473100 21.124800 16.033765 36.955766 -1.659591 3.643637 0.288319 0.898610 10.449358 -30.208765 -6.644931 -0.052200 -1.474400 4.055200 13.077876 -0.949259 20.252819 -4.376756 -0.654749 -24.192926 8.493617 -1.695981 32.025149 1.501700 0.996900 10.185700 -63.875389 -24.099460 49.859471 32.134788 -35.481945 -14.079224 0.597751 -4.228254 -66.837334 -7.125000 0.000000 0.000000 75.979764 28.518129 91.934390 -64.145661 52.543303 -40.329316 -1.837349 0.701258 -45.795890 7.125000 0.000000 0.000000 
1.885866 18.459854 9.842455 -8.918254 -4.797591 15.545065 -21.550353 -51.493643 17.882849 -3.876362 -3.306798 -4.635496 -16.513361 49.696562 -39.116782 1.366400 7.398300 20.901000 15.281448 36.906005 -1.892348 3.638595 0.292282 0.882323 10.507696 -30.247791 -6.635408 -0.053900 -1.498700 4.122200 11.887440 -0.732429 19.778682 -3.792084 -0.418983 -24.093572 8.534879 -1.819917 31.858724 1.470800 0.937000 10.102800 -63.440892 -20.838165 51.863844 36.441731 -38.981290 -17.556579 0.844100 -4.093646 -69.235528 -7.125000 0.000000 0.000000 73.338811 26.310864 91.378265 -69.692777 53.870331 -45.393523 -1.784026 0.557769 -46.599021 7.125000 0.000000 0.000000 
1.889762 18.458275 9.863937 -8.961494 -4.746122 15.689901 -21.229335 -51.183462 17.450396 -3.871535 -3.285906 -4.595519 -16.400198 49.442309 -38.717770 1.370000 7.407600 20.928700 15.303495 36.873901 -1.946577 3.639413 0.283841 0.885117 10.498931 -30.238685 -6.668049 -0.052300 -1.476400 4.060600 11.935449 -0.581730 19.307421 -3.869392 -0.364300 -23.990989 8.724781 -2.001073 31.530644 1.469700 0.858500 9.993100 -63.036242 -17.704181 53.720285 40.978028 -42.048475 -21.400724 1.054179 -3.939245 -71.406590 -7.125000 0.000000 0.000000 70.879109 24.049466 90.733770 -75.202658 55.062618 -50.483697 -1.732659 0.433624 -47.425199 7.125000 0.000000 0.000000 
1.893237 18.457854 9.883946 -9.059557 -4.757846 15.866447 -21.217925 -51.460750 17.582035 -3.887104 -3.279298 -4.566501 -16.137722 49.340837 -39.422312 1.449600 7.610700 21.537600 15.327779 37.074705 -1.970335 3.636587 0.267273 0.903820 10.506194 -30.270223 -6.833895 -0.056400 -1.532900 4.216400 12.264706 -0.453023 18.891538 -3.986380 -0.316690 -23.879894 8.869899 -2.103267 31.283147 1.478900 0.816400 9.930200 -62.719100 -14.652864 55.361237 45.694293 -44.689722 -25.558277 1.239979 -3.769164 -73.389711 -7.125000 0.000000 0.000000 68.553284 21.786280 90.102782 -80.586405 56.120373 -55.427854 -1.675358 0.336093 -48.106470 7.125000 0.000000 0.000000 
1.898819 18.456485 9.907114 -9.147781 -4.799232 15.982076 -21.485326 -51.904807 18.072872 -3.906829 -3.291580 -4.573733 -15.966600 49.427929 -40.332796 1.508600 7.757300 21.979400 15.355281 37.222232 -1.933786 3.635441 0.267584 0.882699 10.516450 -30.311237 -6.896006 -0.053800 -1.496700 4.116700 12.638436 -0.373641 18.694594 -4.083058 -0.276164 -23.803869 8.804462 -2.115363 31.030772 1.442700 0.794500 9.880500 -62.489683 -11.645428 56.790424 50.548438 -46.950885 -29.987007 1.419538 -3.586895 -75.238837 -7.125000 0.000000 0.000000 66.410786 19.556878 89.590523 -85.678703 56.982196 -60.018986 -1.594596 0.252821 -48.773430 7.125000 0.000000 0.000000 
1.907875 18.453536 9.931756 -9.175488 -4.743490 16.050563 -21.597957 -52.013791 18.204347 -3.903503 -3.294117 -4.576305 -16.085064 49.561057 -40.313016 1.474400 7.672600 21.724000 15.345099 37.316221 -1.844565 3.640245 0.296632 0.806444 10.564322 -30.435425 -6.982507 -0.050100 -1.444800 3.973700 12.861010 -0.362244 18.753772 -4.165404 -0.259068 -23.762814 8.723663 -2.111749 30.669006 1.395800 0.774700 9.805300 -62.372341 -8.750737 58.025002 55.459349 -48.874772 -34.599107 1.592943 -3.403662 -76.839679 -7.125000 0.000000 0.000000 64.403995 17.451287 89.221916 -90.388685 57.589282 -64.152325 -1.500654 0.188917 -49.651322 7.125000 0.000000 0.000000 
1.917669 18.450798 9.949975 -9.165477 -4.573476 16.129669 -21.237149 -51.602866 17.591265 -3.876773 -3.268488 -4.536100 -16.314715 49.485054 -39.219879 1.382400 7.439600 21.024400 15.302291 37.438301 -1.779709 3.647681 0.321032 0.760801 10.620412 -30.561532 -7.277334 -0.056000 -1.526400 4.198600 12.933873 -0.360157 18.759662 -4.266498 -0.266817 -23.778769 8.642565 -2.108129 30.381843 1.341500 0.762100 9.749800 -62.312633 -6.035503 59.127022 60.151254 -50.469954 -39.116782 1.753191 -3.229177 -78.075234 -7.125000 0.000000 0.000000 61.909116 16.157643 89.821512 -94.573428 57.878507 -67.718176 -1.400970 0.107294 -51.681846 7.125000 0.000000 0.000000 
1.924935 18.448481 9.968088 -9.173477 -4.600733 16.164814 -21.008812 -51.238374 17.216065 -3.867219 -3.258853 -4.517049 -16.387347 49.395872 -38.645680 1.346600 7.346500 20.746100 15.316062 37.497920 -1.736296 3.649841 0.329120 0.760178 10.615978 -30.540849 -7.370039 -0.056300 -1.531200 4.211800 12.762326 -0.290928 18.936085 -4.286774 -0.224284 -23.841065 8.708522 -2.122464 30.064772 1.328300 0.755600 9.695200 -62.213275 -3.568689 60.061466 64.415438 -51.770932 -43.289296 1.908484 -3.065717 -79.156807 -7.125000 0.000000 0.000000 60.189150 14.342305 89.971905 -98.155028 58.016623 -70.716076 -1.310415 0.070416 -53.006050 7.125000 0.000000 0.000000 
1.930201 18.447112 9.987570 -9.183087 -4.801428 16.121195 -21.233760 -51.350935 17.545359 -3.882848 -3.279723 -4.534523 -16.309318 49.461655 -39.179709 1.394800 7.471600 21.120200 15.350695 37.499948 -1.682726 3.647871 0.337839 0.760361 10.580224 -30.444206 -7.216306 -0.049600 -1.437100 3.952500 12.470986 -0.218089 19.557950 -4.247631 -0.135287 -23.929552 8.977024 -2.150639 29.573878 1.372200 0.753100 9.605800 -62.164052 -1.416086 60.745901 68.133615 -52.814846 -46.948273 2.056173 -2.908555 -80.265216 -7.125000 0.000000 0.000000 59.022932 12.424742 89.932231 -100.800851 58.039175 -72.892327 -1.237478 0.057722 -53.799413 7.125000 0.000000 0.000000 
1.933571 18.447217 10.001470 -9.164840 -4.946495 16.112874 -21.457851 -51.557463 17.847049 -3.897873 -3.291107 -4.530540 -16.171012 49.483093 -39.782923 1.451000 7.614300 21.548400 15.314396 37.548848 -1.676436 3.644344 0.340024 0.767433 10.562714 -30.387961 -7.128709 -0.046900 -1.398400 3.845600 12.289664 -0.198829 20.056386 -4.190583 -0.074742 -24.036207 9.122065 -2.134708 29.300740 1.404300 0.766000 9.577500 -62.270515 0.539331 61.163233 71.229804 -53.640869 -50.000108 2.191225 -2.762768 -81.300571 -7.125000 0.000000 0.000000 58.169345 10.745577 90.028595 -102.544867 58.022077 -74.304003 -1.190867 0.060747 -54.170089 7.125000 0.000000 0.000000 
1.938625 18.447533 10.013160 -9.106105 -4.981780 16.140846 -21.501989 -51.559936 17.839457 -3.897472 -3.286720 -4.527127 -16.153539 49.474322 -39.809834 1.453100 7.619400 21.564000 15.260828 37.566682 -1.673276 3.644527 0.345470 0.764162 10.569918 -30.393012 -7.125368 -0.045100 -1.371100 3.770400 11.898961 -0.189384 20.171909 -4.088102 -0.058952 -24.169149 9.146413 -2.083552 29.265836 1.405400 0.799600 9.596800 -62.337594 2.299661 61.524810 73.603166 -54.261979 -52.341098 2.297628 -2.637017 -82.182415 -7.125000 0.000000 0.000000 57.656524 9.365665 90.258858 -103.728020 58.014943 -75.247092 -1.161140 0.070821 -54.526833 7.125000 0.000000 0.000000 
1.952631 18.444164 10.019584 -8.996543 -4.951788 16.319168 -21.193651 -51.392520 17.262554 -3.875784 -3.242539 -4.485461 -16.228718 49.405982 -39.273866 1.424200 7.546700 21.345400 15.042497 37.314602 -2.007553 3.641976 0.332305 0.796333 10.525923 -30.255779 -7.012045 -0.045900 -1.382200 3.801000 10.966537 -0.087757 19.909931 -3.965013 -0.062831 -24.218234 9.196769 -2.039282 29.091492 1.383000 0.830800 9.540800 -62.231549 3.620472 62.000437 75.027988 -54.640313 -53.764394 2.374228 -2.529277 -82.879754 -7.125000 0.000000 0.000000 57.368634 8.234304 90.461534 -104.340379 58.046880 -75.734386 -1.139672 0.074924 -54.934443 7.125000 0.000000 0.000000 
